<?xml version="1.0" encoding="utf-8"?><svg xmlns="http://www.w3.org/2000/svg" xmlns:xlink="http://www.w3.org/1999/xlink" width="1920" height="867" preserveAspectRatio="xMidYMid" viewBox="0 0 1920 867" style="z-index:1;margin-right:-2px;display:block;background-repeat-y:initial;background-repeat-x:initial;background-color:rgb(241, 242, 243);animation-play-state:paused" ><g transform="translate(960,433.5) scale(1,1) translate(-960,-433.5)" style="transform:matrix(1, 0, 0, 1, 0, 0);animation-play-state:paused" ><path d="M -100 520.12 C -63.8 504.46 -63.7 510.67 -31.61 510.67 S 3.39 505.06 36.77 505.06 S 72.25 521.97 105.16 521.97 S 140.08 506.21 173.55 506.21 S 209.85 513.34 241.94 513.34 S 278.05 513.55 310.32 513.55 S 345.97 511.14 378.71 511.14 S 414.09 507.28 447.1 507.28 S 482.33 523.06 515.48 523.06 S 549.79 503.6 583.87 503.6 S 619.34 522.29 652.26 522.29 S 687.59 503.32 720.65 503.32 S 756.85 506.47 789.03 506.47 S 823.35 521.39 857.42 521.39 S 892.36 507.32 925.81 507.32 S 961.81 507.32 994.19 507.32 S 1029 517.11 1062.58 517.11 S 1098.23 518.69 1130.97 518.69 S 1166.83 520.8 1199.35 520.8 S 1235.41 517.48 1267.74 517.48 S 1303.51 511.94 1336.13 511.94 S 1372.36 508.2 1404.52 508.2 S 1440.41 507.13 1472.9 507.13 S 1508.98 523.34 1541.29 523.34 S 1577.29 519.72 1609.68 519.72 S 1644.21 520.1 1678.06 520.1 S 1713.94 523.01 1746.45 523.01 S 1781.13 505.85 1814.84 505.85 S 1849.91 504.26 1883.23 504.26 S 1917.99 514.77 1951.61 514.77 S 1987.9 523.91 2020 523.91 S 2054.67 521.09 2088.39 521.09 L 2020 867 L -100 867 Z" fill="#11292c" stroke-width="0" transform="matrix(1,0,0,1,0,0)" style="transform:matrix(1, 0, 0, 1, 0, 0);animation-play-state:paused" ></path>
<path d="M -100 526.66 C -64.23 535.13 -63.29 546.88 -29.8 546.88 S 6.3 536.69 40.4 536.69 S 77.55 540.02 110.6 540.02 S 147.63 539.16 180.79 539.16 S 217.72 542.14 250.99 542.14 S 287.5 539.84 321.19 539.84 S 358.05 532.49 391.39 532.49 S 428.31 533.84 461.59 533.84 S 497.86 540.16 531.79 540.16 S 567.29 528.11 601.99 528.11 S 638.98 528.71 672.19 528.71 S 707.9 529.34 742.38 529.34 S 779.23 545.53 812.58 545.53 S 848.68 539.72 882.78 539.72 S 918.14 539.81 952.98 539.81 S 988.11 529.31 1023.18 529.31 S 1059.33 548.47 1093.38 548.47 S 1129.36 543.79 1163.58 543.79 S 1199.96 534.59 1233.77 534.59 S 1269.45 528.4 1303.97 528.4 S 1341.06 545.47 1374.17 545.47 S 1409.75 528.55 1444.37 528.55 S 1480.6 548.18 1514.57 548.18 S 1550.2 539.56 1584.77 539.56 S 1620.6 536.61 1654.97 536.61 S 1690.51 526.79 1725.17 526.79 S 1761.26 536.24 1795.36 536.24 S 1832.2 544.53 1865.56 544.53 S 1902.5 543.52 1935.76 543.52 S 1971.39 530.32 2005.96 530.32 S 2042.98 542.58 2076.16 542.58 L 2020 867 L -100 867 Z" fill="#143133" stroke-width="0" transform="matrix(1,0,0,1,1.1340199708938599,0)" style="transform:matrix(1, 0, 0, 1, 1.13402, 0);animation-play-state:paused" ></path>
<path d="M -100 559.1 C -62.55 549.16 -63.48 558.96 -27.89 558.96 S 8.92 546.55 44.22 546.55 S 81.64 570.92 116.33 570.92 S 153.77 557.2 188.44 557.2 S 225.74 574.24 260.54 574.24 S 298.65 552.99 332.65 552.99 S 370.65 576.06 404.76 576.06 S 441.23 554.68 476.87 554.68 S 512.95 555.85 548.98 555.85 S 585.99 560.94 621.09 560.94 S 657.42 570.93 693.2 570.93 S 730.77 564.57 765.31 564.57 S 801.71 569.12 837.41 569.12 S 873.66 561.87 909.52 561.87 S 946.94 575.91 981.63 575.91 S 1019.22 548.98 1053.74 548.98 S 1090.69 556.22 1125.85 556.22 S 1162.07 549.46 1197.96 549.46 S 1234.72 575.37 1270.07 575.37 S 1306.36 553.9 1342.18 553.9 S 1380.29 568 1414.29 568 S 1450.95 563.13 1486.39 563.13 S 1523.77 571.96 1558.5 571.96 S 1594.59 547.51 1630.61 547.51 S 1668.47 560.99 1702.72 560.99 S 1740.65 567.48 1774.83 567.48 S 1811.49 557.41 1846.94 557.41 S 1884.95 552.57 1919.05 552.57 S 1956.91 564.15 1991.16 564.15 S 2027.91 558.25 2063.27 558.25 L 2020 867 L -100 867 Z" fill="#16393a" stroke-width="0" transform="matrix(1,0,0,1,3.5863146781921387,0)" style="transform:matrix(1, 0, 0, 1, 3.58631, 0);animation-play-state:paused" ></path>
<path d="M -100 571 C -61.92 586.81 -61.84 587.46 -25.87 587.46 S 13.31 574.34 48.25 574.34 S 87.42 600.21 122.38 600.21 S 160.58 582.68 196.5 582.68 S 233.76 599.61 270.63 599.61 S 309.62 578.3 344.76 578.3 S 383.68 584.4 418.88 584.4 S 457.68 570.16 493.01 570.16 S 531.96 586.65 567.13 586.65 S 605.69 568.64 641.26 568.64 S 679.53 590.63 715.38 590.63 S 754.05 583.3 789.51 583.3 S 828.24 585.82 863.64 585.82 S 901.51 583.75 937.76 583.75 S 975.97 588.29 1011.89 588.29 S 1049.42 581.16 1086.01 581.16 S 1123.98 596.74 1160.14 596.74 S 1198.58 573.68 1234.27 573.68 S 1272.89 584.02 1308.39 584.02 S 1345.84 579.25 1382.52 579.25 S 1421.05 594.55 1456.64 594.55 S 1493.89 590.65 1530.77 590.65 S 1569.69 587.61 1604.9 587.61 S 1642.2 575.89 1679.02 575.89 S 1716.33 588.94 1753.15 588.94 S 1790.74 577.57 1827.27 577.57 S 1865.06 587.88 1901.4 587.88 S 1938.79 582.03 1975.52 582.03 S 2014.66 583.85 2049.65 583.85 L 2020 867 L -100 867 Z" fill="#1a4141" stroke-width="0" transform="matrix(1,0,0,1,6.4136857986450195,0)" style="transform:matrix(1, 0, 0, 1, 6.41369, 0);animation-play-state:paused" ></path>
<path d="M -100 600.06 C -60.82 592.03 -61.7 608.97 -23.74 608.97 S 15.79 600.16 52.52 600.16 S 92.36 608.11 128.78 608.11 S 168.72 596.13 205.04 596.13 S 245.25 622.04 281.29 622.04 S 321.31 604.95 357.55 604.95 S 396.61 613.9 433.81 613.9 S 472.63 609.19 510.07 609.19 S 548.86 607.46 586.33 607.46 S 624.72 593.27 662.59 593.27 S 701.54 597.12 738.85 597.12 S 778.84 603.12 815.11 603.12 S 854.68 623.24 891.37 623.24 S 930.45 603.19 967.63 603.19 S 1007.75 617.2 1043.88 617.2 S 1082.03 611.15 1120.14 611.15 S 1158.34 592.36 1196.4 592.36 S 1235.75 614.64 1272.66 614.64 S 1312.9 611.7 1348.92 611.7 S 1389.17 593.39 1425.18 593.39 S 1465.37 614.62 1501.44 614.62 S 1541.62 597.78 1577.7 597.78 S 1617.42 623.13 1653.96 623.13 S 1692.85 593.1 1730.22 593.1 S 1769.84 608.45 1806.47 608.45 S 1844.62 598.86 1882.73 598.86 S 1922.6 608.04 1958.99 608.04 S 1998.35 596.28 2035.25 596.28 L 2020 867 L -100 867 Z" fill="#1d4a47" stroke-width="0" transform="matrix(1,0,0,1,8.86598014831543,0)" style="transform:matrix(1, 0, 0, 1, 8.86598, 0);animation-play-state:paused" ></path>
<path d="M -100 627.01 C -60.23 617.97 -59.89 647.73 -21.48 647.73 S 18.98 619.78 57.04 619.78 S 98.26 652.13 135.56 652.13 S 175.16 628.41 214.07 628.41 S 255.13 636.21 292.59 636.21 S 333.71 618.88 371.11 618.88 S 412.17 635.86 449.63 635.86 S 491.01 631.77 528.15 631.77 S 568.66 636.05 606.67 636.05 S 647.86 632.25 685.19 632.25 S 726.52 643.85 763.7 643.85 S 803.73 616.89 842.22 616.89 S 881.89 634.1 920.74 634.1 S 961.9 651.19 999.26 651.19 S 1039.91 633.42 1077.78 633.42 S 1117.13 620.11 1156.3 620.11 S 1196.31 647.92 1234.81 647.92 S 1275.23 626.26 1313.33 626.26 S 1353.83 634.42 1391.85 634.42 S 1432.97 630.06 1470.37 630.06 S 1509.92 642.05 1548.89 642.05 S 1590.02 628.35 1627.41 628.35 S 1666.99 622.33 1705.93 622.33 S 1745.53 627.17 1784.44 627.17 S 1825.21 654.06 1862.96 654.06 S 1903.29 622.9 1941.48 622.9 S 1981.75 648.16 2020 648.16 S 2060.71 616.49 2098.52 616.49 L 2020 867 L -100 867 Z" fill="#22534d" stroke-width="0" transform="matrix(1,0,0,1,10,0)" style="transform:matrix(1, 0, 0, 1, 10, 0);animation-play-state:paused" ></path>
<path d="M -100 637.89 C -58.86 634.49 -59.54 648.68 -19.08 648.68 S 23.17 641.1 61.83 641.1 S 102.44 674.3 142.75 674.3 S 184.51 651.94 223.66 651.94 S 264.4 669.97 304.58 669.97 S 345.12 650.34 385.5 650.34 S 426.25 676.32 466.41 676.32 S 508.64 634.97 547.33 634.97 S 588.71 661.98 628.24 661.98 S 669.4 645.27 709.16 645.27 S 749.78 662.95 790.08 662.95 S 830.72 635.58 870.99 635.58 S 911.51 669.46 951.91 669.46 S 994.36 654.44 1032.82 654.44 S 1073.76 676.17 1113.74 676.17 S 1155.21 640.48 1194.66 640.48 S 1237.26 661.97 1275.57 661.97 S 1316.72 650.92 1356.49 650.92 S 1398.43 661.84 1437.4 661.84 S 1479.6 637.05 1518.32 637.05 S 1560.73 675.71 1599.24 675.71 S 1640.91 645.09 1680.15 645.09 S 1722.51 659.23 1761.07 659.23 S 1801.76 670.31 1841.98 670.31 S 1882.95 664.09 1922.9 664.09 S 1965.21 652.34 2003.82 652.34 S 2044.64 670.56 2084.73 670.56 L 2020 867 L -100 867 Z" fill="#275b52" stroke-width="0" transform="matrix(1,0,0,1,8.86598014831543,0)" style="transform:matrix(1, 0, 0, 1, 8.86598, 0);animation-play-state:paused" ></path>
<path d="M -100 673.33 C -58.26 666.51 -57.92 706.5 -16.54 706.5 S 26.76 671.7 66.93 671.7 S 109.35 706.4 150.39 706.4 S 193.53 656.82 233.86 656.82 S 277.49 705.64 317.32 705.64 S 360.42 694.33 400.79 694.33 S 443.54 696.38 484.25 696.38 S 528.02 670.27 567.72 670.27 S 611.04 688.02 651.18 688.02 S 695.05 702.44 734.65 702.44 S 778.13 691.9 818.11 691.9 S 861.75 669.48 901.57 669.48 S 944.51 699.58 985.04 699.58 S 1028.31 657 1068.5 657 S 1111.97 697.47 1151.97 697.47 S 1193.92 674.12 1235.43 674.12 S 1279.02 693.71 1318.9 693.71 S 1362.15 672.59 1402.36 672.59 S 1444.87 684.97 1485.83 684.97 S 1528.83 665.93 1569.29 665.93 S 1611.74 691.28 1652.76 691.28 S 1694.67 666.2 1736.22 666.2 S 1779.37 699.55 1819.69 699.55 S 1863.51 661.93 1903.15 661.93 S 1945.07 692.38 1986.61 692.38 S 2028.68 662.01 2070.08 662.01 L 2020 867 L -100 867 Z" fill="#2d6457" stroke-width="0" transform="matrix(1,0,0,1,6.4136857986450195,0)" style="transform:matrix(1, 0, 0, 1, 6.41369, 0);animation-play-state:paused" ></path>
<path d="M -100 696.03 C -55.36 696.3 -56.23 717.68 -13.82 717.68 S 30.33 681.25 72.36 681.25 S 116.63 732.35 158.54 732.35 S 203.02 683.86 244.72 683.86 S 287.94 719.51 330.89 719.51 S 375.37 691.18 417.07 691.18 S 461.02 686.56 503.25 686.56 S 547.79 687.04 589.43 687.04 S 632.78 713.48 675.61 713.48 S 718.72 684.99 761.79 684.99 S 805.71 713.26 847.97 713.26 S 891.96 691.89 934.15 691.89 S 978.92 680.27 1020.33 680.27 S 1065.3 690.96 1106.5 690.96 S 1150.51 714.24 1192.68 714.24 S 1237.47 681.8 1278.86 681.8 S 1324.02 713.37 1365.04 713.37 S 1408.71 692.09 1451.22 692.09 S 1494.58 727.4 1537.4 727.4 S 1581.44 730.57 1623.58 730.57 S 1667.71 729.86 1709.76 729.86 S 1754.99 691.94 1795.93 691.94 S 1841.17 713.96 1882.11 713.96 S 1926.61 686.87 1968.29 686.87 S 2012.48 711.78 2054.47 711.78 L 2020 867 L -100 867 Z" fill="#336d5c" stroke-width="0" transform="matrix(1,0,0,1,3.5863142013549805,0)" style="transform:matrix(1, 0, 0, 1, 3.58631, 0);animation-play-state:paused" ></path>
<path d="M -100 703.31 C -54.03 699.48 -55.02 745.56 -10.92 745.56 S 34.24 702.12 78.15 702.12 S 123.35 745.87 167.23 745.87 S 212.91 708.51 256.3 708.51 S 302 742.3 345.38 742.3 S 391.08 758.3 434.45 758.3 S 480.71 738.53 523.53 738.53 S 568.74 706.93 612.61 706.93 S 659.12 755.74 701.68 755.74 S 747.36 698.01 790.76 698.01 S 836.13 752.33 879.83 752.33 S 924.62 716.92 968.91 716.92 S 1013.92 739.79 1057.98 739.79 S 1102.75 699.31 1147.06 699.31 S 1192.72 741.65 1236.13 741.65 S 1282.45 705.57 1325.21 705.57 S 1370.49 714.98 1414.29 714.98 S 1459.89 711.15 1503.36 711.15 S 1549.04 742.12 1592.44 742.12 S 1638.57 705.27 1681.51 705.27 S 1726.73 750.48 1770.59 750.48 S 1815.63 718.09 1859.66 718.09 S 1905.7 740.08 1948.74 740.08 S 1995.33 716.9 2037.82 716.9 L 2020 867 L -100 867 Z" fill="#3b7660" stroke-width="0" transform="matrix(1,0,0,1,1.1340198516845703,0)" style="transform:matrix(1, 0, 0, 1, 1.13402, 0);animation-play-state:paused" ></path></g></svg>