<?xml version="1.0" encoding="utf-8"?><svg xmlns="http://www.w3.org/2000/svg" xmlns:xlink="http://www.w3.org/1999/xlink" width="1920" height="867" preserveAspectRatio="xMidYMid" viewBox="0 0 1920 867" style="z-index:1;margin-right:-2px;display:block;background-repeat-y:initial;background-repeat-x:initial;background-color:rgb(189, 213, 234);animation-play-state:paused" ><g transform="translate(960,433.5) scale(1,1) translate(-960,-433.5)" style="transform:matrix(1, 0, 0, 1, 0, 0);animation-play-state:paused" ><path d="M -100 514.61 C -65.08 503.11 -65.13 520.68 -31.61 520.68 S 3.66 504.87 36.77 504.87 S 72.66 504.69 105.16 504.69 S 139.41 517.75 173.55 517.75 S 209.29 511.35 241.94 511.35 S 277.47 511.97 310.32 511.97 S 344.74 510.91 378.71 510.91 S 414.65 519.92 447.1 519.92 S 483.06 505.03 515.48 505.03 S 550.73 504.9 583.87 504.9 S 618.23 513.16 652.26 513.16 S 687.12 514.62 720.65 514.62 S 755.73 512.15 789.03 512.15 S 823.57 520.87 857.42 520.87 S 891.82 514.94 925.81 514.94 S 960.01 507.62 994.19 507.62 S 1028.93 508.24 1062.58 508.24 S 1097.14 508.04 1130.97 508.04 S 1165.25 503.96 1199.35 503.96 S 1234.18 509.05 1267.74 509.05 S 1302.42 503.13 1336.13 503.13 S 1370.6 518.08 1404.52 518.08 S 1439.02 519.49 1472.9 519.49 S 1508.57 508.58 1541.29 508.58 S 1576.53 510.83 1609.68 510.83 S 1644.71 520.87 1678.06 520.87 S 1713.47 504.83 1746.45 504.83 S 1780.7 505.13 1814.84 505.13 S 1849.25 510.32 1883.23 510.32 S 1918.81 520.91 1951.61 520.91 S 1986.25 518.78 2020 518.78 S 2055.52 518.56 2088.39 518.56 L 2020 867 L -100 867 Z" fill="#577399" stroke-width="0" transform="matrix(1,0,0,1,0,0)" style="transform:matrix(1, 0, 0, 1, 0, 0);animation-play-state:paused" ></path>
<path d="M -100 522.72 C -65.05 525.88 -64.9 541.67 -30.11 541.67 S 5.78 524.74 39.78 524.74 S 75.52 527.45 109.67 527.45 S 145.82 533.15 179.56 533.15 S 215.38 541.35 249.45 541.35 S 285.58 522.44 319.34 522.44 S 355.42 536.22 389.23 536.22 S 424.56 528.39 459.12 528.39 S 495.68 534.7 529.01 534.7 S 564.63 524.06 598.9 524.06 S 634.19 534.72 668.79 534.72 S 705.05 521 738.68 521 S 775.37 540.32 808.57 540.32 S 844.1 534.2 878.46 534.2 S 913.94 527.15 948.35 527.15 S 983.32 527.46 1018.24 527.46 S 1054.62 524.77 1088.13 524.77 S 1124.62 525 1158.02 525 S 1194.56 524.09 1227.91 524.09 S 1263.97 529.67 1297.8 529.67 S 1333.09 532.66 1367.69 532.66 S 1404.31 532.41 1437.58 532.41 S 1473.22 539.97 1507.47 539.97 S 1542.63 524.99 1577.36 524.99 S 1612.53 532.06 1647.25 532.06 S 1682.74 532.77 1717.14 532.77 S 1752.29 525.25 1787.03 525.25 S 1822.8 532.64 1856.92 532.64 S 1893.05 535.12 1926.81 535.12 S 1962.18 529.87 1996.7 529.87 S 2032.75 533.15 2066.59 533.15 L 2020 867 L -100 867 Z" fill="#657da1" stroke-width="0" transform="matrix(1,0,0,1,0.8208104968070984,0)" style="transform:matrix(1, 0, 0, 1, 0.82081, 0);animation-play-state:paused" ></path>
<path d="M -100 553.44 C -63.25 539.75 -64.2 560.9 -28.54 560.9 S 8.65 552.4 42.92 552.4 S 78.97 554.08 114.38 554.08 S 150.78 547.45 185.84 547.45 S 223.33 553.29 257.3 553.29 S 293.41 550.64 328.76 550.64 S 364.98 554.15 400.22 554.15 S 436.47 541.85 471.69 541.85 S 508.36 549.33 543.15 549.33 S 579.38 548.54 614.61 548.54 S 651.65 554.18 686.07 554.18 S 723.3 556.85 757.53 556.85 S 794.94 557.04 828.99 557.04 S 866.49 544.27 900.45 544.27 S 937.31 551.27 971.91 551.27 S 1009.28 541.55 1043.37 541.55 S 1080.47 553.21 1114.83 553.21 S 1151.62 549 1186.29 549 S 1222.57 546.57 1257.75 546.57 S 1293.71 539.2 1329.21 539.2 S 1365.19 548.14 1400.67 548.14 S 1437.57 550.6 1472.13 550.6 S 1509.19 553.03 1543.6 553.03 S 1581.12 549.43 1615.06 549.43 S 1651.42 546.91 1686.52 546.91 S 1723.4 555.93 1757.98 555.93 S 1794.81 545.01 1829.44 545.01 S 1866.15 551.98 1900.9 551.98 S 1936.72 558.74 1972.36 558.74 S 2008.51 547.22 2043.82 547.22 L 2020 867 L -100 867 Z" fill="#7487aa" stroke-width="0" transform="matrix(1,0,0,1,2.6886119842529297,0)" style="transform:matrix(1, 0, 0, 1, 2.68861, 0);animation-play-state:paused" ></path>
<path d="M -100 569.67 C -62.2 558.2 -62.69 569.02 -26.9 569.02 S 9.92 581.58 46.21 581.58 S 83.03 570.13 119.31 570.13 S 156.92 577.28 192.41 577.28 S 230.75 580.54 265.52 580.54 S 303.48 557.63 338.62 557.63 S 376.76 568.62 411.72 568.62 S 449.73 573.88 484.83 573.88 S 522.71 578.57 557.93 578.57 S 595.45 567.21 631.03 567.21 S 667.66 566.9 704.14 566.9 S 741.01 564.22 777.24 564.22 S 814.07 567.04 850.34 567.04 S 888.03 570.57 923.45 570.57 S 961.73 573.66 996.55 573.66 S 1033.62 562.43 1069.66 562.43 S 1106.88 566.81 1142.76 566.81 S 1179.32 564.78 1215.86 564.78 S 1254.12 581.84 1288.97 581.84 S 1325.96 567.74 1362.07 567.74 S 1400.35 577.36 1435.17 577.36 S 1472.79 567.19 1508.28 567.19 S 1545.7 566.71 1581.38 566.71 S 1619.19 564.42 1654.48 564.42 S 1691.23 572.46 1727.59 572.46 S 1764.35 562.72 1800.69 562.72 S 1838.57 574.25 1873.79 574.25 S 1911.97 561.24 1946.9 561.24 S 1985.12 574.45 2020 574.45 S 2057.63 574.14 2093.1 574.14 L 2020 867 L -100 867 Z" fill="#8191b2" stroke-width="0" transform="matrix(1,0,0,1,5,0)" style="transform:matrix(1, 0, 0, 1, 5, 0);animation-play-state:paused" ></path>
<path d="M -100 581.36 C -61.76 579.4 -61.9 603.25 -25.18 603.25 S 13.43 592.97 49.65 592.97 S 87.73 589.79 124.47 589.79 S 163.63 584.2 199.29 584.2 S 238.08 587.39 274.12 587.39 S 311.88 578.6 348.94 578.6 S 387.18 595 423.76 595 S 461.39 581.76 498.59 581.76 S 537.49 602.96 573.41 602.96 S 612.51 582.16 648.24 582.16 S 685.91 589.71 723.06 589.71 S 760.73 581.25 797.88 581.25 S 835.82 594.99 872.71 594.99 S 911.86 581.03 947.53 581.03 S 985.16 600.61 1022.35 600.61 S 1060.3 581.07 1097.18 581.07 S 1135.65 588.98 1172 588.98 S 1210.77 590.35 1246.82 590.35 S 1285.88 591.66 1321.65 591.66 S 1360.44 578.78 1396.47 578.78 S 1434.47 582.81 1471.29 582.81 S 1509.42 579.57 1546.12 579.57 S 1584.31 599.17 1620.94 599.17 S 1659.6 590.56 1695.76 590.56 S 1734.33 590.71 1770.59 590.71 S 1808.94 592.5 1845.41 592.5 S 1884.04 597.48 1920.24 597.48 S 1958.89 582.69 1995.06 582.69 S 2033.19 595.16 2069.88 595.16 L 2020 867 L -100 867 Z" fill="#8f9cba" stroke-width="0" transform="matrix(1,0,0,1,7.311387062072754,0)" style="transform:matrix(1, 0, 0, 1, 7.31139, 0);animation-play-state:paused" ></path>
<path d="M -100 617.27 C -60.96 616.53 -61.42 618.48 -23.37 618.48 S 15.87 622.52 53.25 622.52 S 91.79 602.38 129.88 602.38 S 169.11 610.43 206.51 610.43 S 245.02 625.2 283.13 625.2 S 322.37 601.81 359.76 601.81 S 399.2 616.18 436.39 616.18 S 476.28 594.13 513.01 594.13 S 552.18 594.66 589.64 594.66 S 629.62 607.23 666.27 607.23 S 705.77 621.58 742.89 621.58 S 782.91 608.79 819.52 608.79 S 859.01 618.17 896.14 618.17 S 936.01 606.69 972.77 606.69 S 1012.6 617.07 1049.4 617.07 S 1088.34 610.89 1126.02 610.89 S 1165.04 620.63 1202.65 620.63 S 1241.96 600.85 1279.28 600.85 S 1318.42 597.13 1355.9 597.13 S 1395.31 608.27 1432.53 608.27 S 1471.02 620.94 1509.16 620.94 S 1547.74 603.51 1585.78 603.51 S 1624.68 617.42 1662.41 617.42 S 1701.91 593.52 1739.04 593.52 S 1778.72 614.09 1815.66 614.09 S 1853.99 607.29 1892.29 607.29 S 1932.36 615.79 1968.92 615.79 S 2007.63 594.2 2045.54 594.2 L 2020 867 L -100 867 Z" fill="#9ca7c3" stroke-width="0" transform="matrix(1,0,0,1,9.17918872833252,0)" style="transform:matrix(1, 0, 0, 1, 9.17919, 0);animation-play-state:paused" ></path>
<path d="M -100 629.1 C -59.53 626.36 -59.8 634.48 -21.48 634.48 S 19.47 623.14 57.04 623.14 S 97.59 616.46 135.56 616.46 S 175.76 615.5 214.07 615.5 S 255.03 642.28 292.59 642.28 S 333.57 621.44 371.11 621.44 S 410.91 634.4 449.63 634.4 S 489.21 613.62 528.15 613.62 S 568.26 631.2 606.67 631.2 S 646.43 620.48 685.19 620.48 S 724.5 642.11 763.7 642.11 S 804.57 621.67 842.22 621.67 S 883.24 637.86 920.74 637.86 S 960.7 623.93 999.26 623.93 S 1039.17 640.12 1077.78 640.12 S 1118 613.18 1156.3 613.18 S 1196.19 642.93 1234.81 642.93 S 1274.92 628.68 1313.33 628.68 S 1353.31 629.34 1391.85 629.34 S 1431.66 615.92 1470.37 615.92 S 1511.2 638.26 1548.89 638.26 S 1588.93 625.53 1627.41 625.53 S 1667.17 641.23 1705.93 641.23 S 1746.6 626.45 1784.44 626.45 S 1825.45 624.54 1862.96 624.54 S 1903.83 618.99 1941.48 618.99 S 1981.81 629.63 2020 629.63 S 2059.65 612.69 2098.52 612.69 L 2020 867 L -100 867 Z" fill="#aab2cb" stroke-width="0" transform="matrix(1,0,0,1,10,0)" style="transform:matrix(1, 0, 0, 1, 10, 0);animation-play-state:paused" ></path>
<path d="M -100 637.8 C -58.88 636.45 -59.66 656.34 -19.49 656.34 S 22.33 633.76 61.01 633.76 S 102.37 650.66 141.52 650.66 S 183.32 662.88 222.03 662.88 S 262.49 665.03 302.53 665.03 S 344.31 645.12 383.04 645.12 S 424.22 659.45 463.54 659.45 S 504.48 643.86 544.05 643.86 S 584.69 665.34 624.56 665.34 S 664.86 630.32 705.06 630.32 S 745.44 658.15 785.57 658.15 S 826.3 668.09 866.08 668.09 S 907.67 640.23 946.58 640.23 S 988.61 643.87 1027.09 643.87 S 1068.27 659.88 1107.59 659.88 S 1149.6 631.07 1188.1 631.07 S 1228.97 662.76 1268.61 662.76 S 1310.2 640.02 1349.11 640.02 S 1389.88 666.61 1429.62 666.61 S 1470.8 637.32 1510.13 637.32 S 1550.81 666.27 1590.63 666.27 S 1632.05 639.46 1671.14 639.46 S 1711.59 654.54 1751.65 654.54 S 1793.7 644.62 1832.15 644.62 S 1873.52 665.95 1912.66 665.95 S 1953.69 646.19 1993.16 646.19 S 2035.12 667 2073.67 667 L 2020 867 L -100 867 Z" fill="#b7bdd4" stroke-width="0" transform="matrix(1,0,0,1,9.179190635681152,0)" style="transform:matrix(1, 0, 0, 1, 9.17919, 0);animation-play-state:paused" ></path>
<path d="M -100 649.85 C -57.09 660.4 -57.72 675.49 -17.4 675.49 S 24.82 661.13 65.19 661.13 S 107.85 682.56 147.79 682.56 S 189.53 657.28 230.39 657.28 S 272.47 681.82 312.99 681.82 S 354.93 647.45 395.58 647.45 S 437.19 678.92 478.18 678.92 S 521.02 654.72 560.78 654.72 S 602.63 682.6 643.38 682.6 S 684.8 659.94 725.97 659.94 S 767.54 681.38 808.57 681.38 S 850.73 652.36 891.17 652.36 S 933.3 656.86 973.77 656.86 S 1016.38 661.42 1056.36 661.42 S 1098.23 687.16 1138.96 687.16 S 1180.96 659.61 1221.56 659.61 S 1262.91 672.01 1304.16 672.01 S 1346.01 661.3 1386.75 661.3 S 1428.05 681.68 1469.35 681.68 S 1511.86 660.32 1551.95 660.32 S 1593.81 659.13 1634.55 659.13 S 1675.87 656.15 1717.14 656.15 S 1759.58 682.58 1799.74 682.58 S 1842.3 655.89 1882.34 655.89 S 1924.98 680.15 1964.94 680.15 S 2006.56 665.41 2047.53 665.41 L 2020 867 L -100 867 Z" fill="#c4c8dc" stroke-width="0" transform="matrix(1,0,0,1,7.3113884925842285,0)" style="transform:matrix(1, 0, 0, 1, 7.31139, 0);animation-play-state:paused" ></path>
<path d="M -100 673.16 C -56.07 672.24 -57.53 701.15 -15.2 701.15 S 28.29 674.39 69.6 674.39 S 112.89 705.13 154.4 705.13 S 198.55 675.84 239.2 675.84 S 281.86 704.2 324 704.2 S 367.78 709.74 408.8 709.74 S 451.26 700.42 493.6 700.42 S 536.48 681.99 578.4 681.99 S 620.8 681.6 663.2 681.6 S 705.66 666.44 748 666.44 S 791.73 707.96 832.8 707.96 S 876.23 667.31 917.6 667.31 S 961.51 706.21 1002.4 706.21 S 1045.27 672.83 1087.2 672.83 S 1130.87 693.76 1172 693.76 S 1216.1 666.99 1256.8 666.99 S 1300.68 667.45 1341.6 667.45 S 1385.79 682.38 1426.4 682.38 S 1469.18 709.64 1511.2 709.64 S 1554.47 676.7 1596 676.7 S 1638.81 697.5 1680.8 697.5 S 1723.2 705.19 1765.6 705.19 S 1809.25 697.71 1850.4 697.71 S 1894.43 677.31 1935.2 677.31 S 1978.36 696.36 2020 696.36 S 2063.77 683.03 2104.8 683.03 L 2020 867 L -100 867 Z" fill="#d1d3e5" stroke-width="0" transform="matrix(1,0,0,1,5,0)" style="transform:matrix(1, 0, 0, 1, 5, 0);animation-play-state:paused" ></path>
<path d="M -100 699.28 C -55.67 685.42 -55.29 729.9 -12.88 729.9 S 31.58 686.23 74.25 686.23 S 119.37 721.47 161.37 721.47 S 205.77 716.72 248.49 716.72 S 293.84 731.16 335.62 731.16 S 379.37 688.53 422.74 688.53 S 466.59 728.77 509.86 728.77 S 554.69 690.43 596.99 690.43 S 642.16 720.83 684.11 720.83 S 728.52 699.52 771.23 699.52 S 815.21 690.76 858.36 690.76 S 903.17 692.86 945.48 692.86 S 989.32 729.43 1032.6 729.43 S 1077.19 693.82 1119.73 693.82 S 1164.23 720.86 1206.85 720.86 S 1251.68 688.44 1293.97 688.44 S 1339.06 717.34 1381.1 717.34 S 1426.16 692.99 1468.22 692.99 S 1513.43 719.94 1555.34 719.94 S 1599.15 692.92 1642.47 692.92 S 1686.94 684.77 1729.59 684.77 S 1774.85 691.07 1816.71 691.07 S 1861.74 720.74 1903.84 720.74 S 1948.35 686.17 1990.96 686.17 S 2034.98 717.47 2078.08 717.47 L 2020 867 L -100 867 Z" fill="#dedfed" stroke-width="0" transform="matrix(1,0,0,1,2.6886167526245117,0)" style="transform:matrix(1, 0, 0, 1, 2.68862, 0);animation-play-state:paused" ></path>
<path d="M -100 716.48 C -53.8 717.06 -53.82 708.48 -10.42 708.48 S 36.07 744.97 79.15 744.97 S 125.11 744.59 168.73 744.59 S 213.65 717.21 258.31 717.21 S 304.52 735.63 347.89 735.63 S 393.02 717.88 437.46 717.88 S 483.1 751.17 527.04 751.17 S 572.67 708.49 616.62 708.49 S 661.79 740.03 706.2 740.03 S 752.79 709.91 795.77 709.91 S 842.06 745.45 885.35 745.45 S 931.11 714.33 974.93 714.33 S 1021.31 749.08 1064.51 749.08 S 1109.8 702.91 1154.08 702.91 S 1200.09 750.5 1243.66 750.5 S 1288.81 702.43 1333.24 702.43 S 1379.83 702.3 1422.82 702.3 S 1467.73 704.99 1512.39 704.99 S 1558.27 748.18 1601.97 748.18 S 1647.68 711.32 1691.55 711.32 S 1737.13 741.42 1781.13 741.42 S 1826.99 709.65 1870.7 709.65 S 1916.75 741.67 1960.28 741.67 S 2005.6 704.28 2049.86 704.28 L 2020 867 L -100 867 Z" fill="#eaebf6" stroke-width="0" transform="matrix(1,0,0,1,0.8208160400390625,0)" style="transform:matrix(1, 0, 0, 1, 0.820816, 0);animation-play-state:paused" ></path></g></svg>